# xmcd
#
# Track frame offsets: 
#        150
#        16588
#        36726
#        54988
#        72202
#        88047
#        108161
#        125622
#        142700
#        166805
#        178136
#
# Disc length: 2510 seconds
#
# Revision: 0
# Processed by: cddbd v1.5.2PL0 Copyright (c) Steve Scherf et al.
# Submitted via: ExactAudioCopy v0.99pb4
#
DISCID=8a09cc0b
DTITLE=Memphis....in the meantime - Dave Berry
DYEAR=2004
DGENRE=Pop
TTITLE0=Mercury Blues
TTITLE1=Same Old Blues
TTITLE2=Mean 'Ol Frisco
TTITLE3=Are You Goin' My Way
TTITLE4=Memphis In The Meantime
TTITLE5=Cajun Moon
TTITLE6=Georgia Ray
TTITLE7=Pony Boy
TTITLE8=Taking The Midnight Train
TTITLE9=Boppin The Blues
TTITLE10=My Baby Left Me
EXTD=
EXTT0=
EXTT1=
EXTT2=
EXTT3=
EXTT4=
EXTT5=
EXTT6=
EXTT7=
EXTT8=
EXTT9=
EXTT10=
PLAYORDER=
